<svg xmlns="http://www.w3.org/2000/svg" width="46" height="46.001" viewBox="0 0 46 46.001">
  <path id="ic_user" d="M28.17,51a26.727,26.727,0,0,1-3.354-.218,21.976,21.976,0,0,1-11.964-5.472,22.608,22.608,0,0,1-7.5-13.345c-.1-.592-.179-1.208-.252-1.8-.033-.271-.066-.542-.1-.813V26.683l.016-.088c.024-.124.046-.248.062-.373.038-.286.07-.573.1-.859.066-.579.128-1.126.23-1.668A23,23,0,0,1,24.027,5.355c.594-.1,1.213-.179,1.81-.252.271-.033.542-.067.813-.1H29.3l.053.011c.1.022.209.044.315.061.421.065.843.121,1.266.176a24.771,24.771,0,0,1,2.555.425A23.026,23.026,0,0,1,50.584,32.3a22.417,22.417,0,0,1-7.008,12.6A22.3,22.3,0,0,1,28.17,51Zm-.136-19.217a16.33,16.33,0,0,0-7.141,1.729A15.452,15.452,0,0,0,12.9,42.534a1.289,1.289,0,0,0,.306,1.275A21.539,21.539,0,0,0,28.159,49.7h.027l.027,0c.151-.009.319-.016.5-.024.459-.02.979-.043,1.511-.1a21.5,21.5,0,0,0,12.56-5.764,1.241,1.241,0,0,0,.317-1.231,15.461,15.461,0,0,0-6.953-8.489A16.123,16.123,0,0,0,28.034,31.784Zm-.054-17.961a8.952,8.952,0,0,1,8.978,9.546,8.955,8.955,0,0,1-3.653,6.762l-1.082.82,1.283.445A17.478,17.478,0,0,1,43.935,41l.493,1.116.746-.965A21.675,21.675,0,0,0,27.964,6.322a21.358,21.358,0,0,0-15.355,6.435,21.5,21.5,0,0,0-1.795,28.378l.737.927.491-1.078A17.484,17.484,0,0,1,22.5,31.376l1.248-.451-1.052-.808a9.17,9.17,0,0,1-3.664-6.642,8.975,8.975,0,0,1,8.953-9.652Zm0,1.315a7.659,7.659,0,1,0,.013,0h-.013Z" transform="translate(-4.996 -5)" fill="#fff"/>
</svg>
